<svg xmlns="http://www.w3.org/2000/svg" width="483" height="600" viewBox="0 0 483 600">
    <g fill="#266ca2" fill-rule="evenodd">
        <path d="M280 182V8l-87 87.004zM81.278 208l-97.302 97.331s-.009 0-.009.009l-87.547 87.573c-8.004 8.007-12.42 18.67-12.42 30.008v146.864C-116 586.437-102.45 600-85.794 600H74.809V402.663c0-.785.181-1.536.449-2.244.077-.207.172-.38.267-.578.259-.517.57-1 .957-1.432.095-.095.121-.233.225-.328L174 300.76l-58.47-58.498L81.277 208z"/>
        <path d="M291.705 199.8a6.522 6.522 0 0 1-1.406 2.115L193 299.248l58.478 58.498L285.728 392 470.57 207.091c7.892-7.894 12.429-18.843 12.429-30.017V30.216C483 13.555 469.45 0 452.795 0H292.197v197.342c0 .837-.173 1.665-.492 2.459M176 504.504l-77.691-77.249L89 418v173z"/>
        <path d="M183.248 290L276 197.272 91.091 12.42C83.076 4.416 72.411 0 61.074 0H-85.784C-102.445 0-116 13.55-116 30.205v160.598H81.342c.785 0 1.527.181 2.234.449.207.077.389.172.578.267.518.259.984.57 1.424.949.104.095.242.13.337.233L183.248 290zM387.5 309L301 396h173z"/>
        <path d="M281.085 406.293L183.752 309 91 401.722l184.909 184.849c7.903 7.892 18.835 12.429 30.008 12.429h146.867c16.67 0 30.216-13.55 30.216-30.206V408.191H285.658a6.475 6.475 0 0 1-4.573-1.898M-21.5 292L65 205h-173z"/>
    </g>
</svg>